<?xml version="1.0" encoding="utf-8"?>
<!-- Generator: Adobe Illustrator 25.2.1, SVG Export Plug-In . SVG Version: 6.00 Build 0)  -->
<svg version="1.1" id="Layer_1" xmlns="http://www.w3.org/2000/svg" xmlns:xlink="http://www.w3.org/1999/xlink" x="0px" y="0px"
	 viewBox="0 0 80 80" style="enable-background:new 0 0 80 80;" xml:space="preserve">
<style type="text/css">
	.st0{fill:#E92629;}
	.st1{fill:#010101;}
	.st2{fill:#3D3E3F;}
</style>
<path class="st0" d="M47.23,44.91c0.25-0.86,0.49-1.69,0.73-2.51c0.24-0.81,0.11-1.23-0.54-1.78c-2.83-2.4-5.65-4.8-8.47-7.2
	c-0.16-0.14-0.31-0.28-0.48-0.4c-0.19-0.13-0.17-0.21,0.03-0.31c0.57-0.27,1.13-0.55,1.7-0.82c0.54-0.25,0.67-0.47,0.53-1.05
	c-0.32-1.32-0.67-2.63-1.01-3.94c-0.19-0.73-0.38-1.45-0.58-2.17c-0.06-0.23-0.01-0.29,0.24-0.24c1.68,0.38,3.36,0.74,5.04,1.11
	c0.53,0.12,0.93-0.13,1.08-0.66c0.2-0.72,0.39-1.45,0.59-2.17c0.02-0.07,0.05-0.14,0.09-0.28c0.41,0.48,0.8,0.92,1.18,1.37
	c1.03,1.21,2.06,2.41,3.1,3.62c0.13,0.15,0.27,0.3,0.44,0.39c0.55,0.3,1.05,0.02,1.1-0.61c0.04-0.48-0.07-0.95-0.15-1.41
	c-0.51-2.85-1.04-5.71-1.56-8.56c-0.06-0.32-0.11-0.65-0.17-1.03c0.71,0.38,1.37,0.73,2.02,1.08c0.25,0.14,0.5,0.28,0.76,0.4
	c0.67,0.29,1.15,0.12,1.48-0.52c0.58-1.11,1.14-2.22,1.71-3.33c0.47-0.92,0.93-1.84,1.41-2.76c0.05-0.1,0.15-0.23,0.24-0.25
	c0.08-0.01,0.12,0.16,0.17,0.25c1.1,1.95,2.05,3.97,3.09,5.95c0.43,0.81,0.94,1,1.75,0.58c0.77-0.41,1.53-0.83,2.3-1.24
	c0.08-0.04,0.16-0.07,0.29-0.14c-0.1,0.55-0.19,1.06-0.28,1.56c-0.44,2.45-0.88,4.91-1.33,7.36c-0.08,0.47-0.17,0.93-0.25,1.4
	c-0.02,0.14-0.03,0.29-0.03,0.43c0,0.37,0.01,0.77,0.43,0.92c0.41,0.16,0.76-0.05,1.03-0.36c0.52-0.59,1.02-1.19,1.53-1.78
	c0.87-1,1.7-2.03,2.59-3c0.18-0.2,0.29-0.2,0.37,0.07c0.17,0.64,0.36,1.27,0.52,1.91c0.16,0.66,0.6,1,1.3,0.77
	c0.1-0.03,0.22-0.04,0.32-0.06c1.52-0.34,3.04-0.67,4.55-1.02c0.24-0.05,0.29-0.02,0.22,0.24c-0.53,1.99-1.05,3.99-1.56,5.98
	c-0.18,0.69-0.06,0.89,0.57,1.2c0.51,0.24,1.01,0.5,1.51,0.75c0.36,0.18,0.36,0.18,0.07,0.43c-1.35,1.14-2.69,2.28-4.04,3.42
	c-1.67,1.41-3.33,2.82-4.99,4.24c-0.46,0.39-0.6,0.88-0.43,1.46c0.23,0.79,0.46,1.59,0.7,2.38c0.03,0.09,0.04,0.19,0.07,0.31
	c-0.96-0.11-1.9-0.22-2.84-0.33c-1.41-0.17-2.83-0.34-4.24-0.52c-0.67-0.08-1.34-0.16-2.01-0.25c-0.63-0.08-1.06,0.34-0.95,0.96
	c0.04,0.2,0.04,0.4,0.04,0.59c0.07,3,0.14,5.99,0.22,8.99c0.01,0.26-0.06,0.35-0.32,0.33c-0.31-0.02-0.62-0.02-0.93,0
	c-0.24,0.02-0.3-0.07-0.29-0.3c0.08-1.78,0.15-3.56,0.22-5.33c0.06-1.49,0.13-2.98,0.18-4.47c0.02-0.5-0.36-0.84-0.87-0.77
	c-2.28,0.28-4.56,0.56-6.84,0.83C48.82,44.73,48.05,44.81,47.23,44.91z M49.36,36.07c-0.12-0.2-0.25-0.24-0.36-0.31
	c-0.48-0.27-0.99-0.49-1.43-0.83c-0.25-0.19-0.25-0.3,0.01-0.48c0.26-0.17,0.55-0.27,0.86-0.31c0.69-0.1,1.39-0.12,2.08-0.14
	c0.1,0,0.22,0.04,0.31-0.07c-0.06-0.11-0.17-0.13-0.27-0.17c-0.43-0.18-0.87-0.12-1.31-0.06c-0.63,0.09-1.26,0.05-1.87-0.12
	c-0.61-0.16-1.11-0.45-1.23-1.14c-0.08-0.43-0.14-0.87-0.14-1.32c0.01-0.6,0.01-1.2-0.19-1.77c-0.32-0.9-0.75-1.77-0.87-2.74
	c-0.01-0.07-0.02-0.17-0.12-0.17c-0.1-0.01-0.12,0.08-0.13,0.16c-0.01,0.11-0.04,0.21-0.14,0.29c-0.15,0.11-0.18,0.27-0.18,0.44
	c0,0.16,0.08,0.39-0.24,0.3c-0.05-0.01-0.07,0.04-0.07,0.09c-0.1,0.66-0.25,1.31-0.1,1.99c0.06,0.28,0.17,0.58,0.02,0.88
	c-0.19,0.38-0.22,0.78-0.18,1.2c0.05,0.52,0.16,1.03,0.29,1.53c0.07,0.26-0.01,0.38-0.26,0.41c-0.1,0.01-0.2,0.02-0.29,0.06
	c-0.54,0.24-1.26,0.05-1.62,0.71c-0.03,0.06-0.16,0.05-0.11,0.16c0.04,0.09,0.13,0.1,0.22,0.12c0.9,0.21,1.82,0.21,2.74,0.16
	c0.4-0.02,0.78,0.02,1.12,0.21C46.95,35.76,48.16,35.75,49.36,36.07z"/>
<path class="st1" d="M39.14,30.74c-0.36,0.13-0.65,0.13-0.92,0.16c-0.52,0.07-1.05,0.12-1.57,0.2c-0.25,0.04-0.47,0.17-0.69,0.29
	c-0.2,0.11-0.24,0.22-0.12,0.42c0.19,0.31,0.34,0.65,0.52,0.96c0.42,0.69,0.37,1.44,0.25,2.18c-0.09,0.53-0.21,1.05-0.32,1.58
	c-0.02,0.1,0.02,0.24-0.12,0.28c-0.14,0.03-0.09-0.15-0.15-0.17c-0.39-0.11-0.26-0.45-0.31-0.7c-0.02-0.13-0.02-0.25-0.14-0.35
	c-0.12-0.1-0.17-0.26-0.19-0.41c-0.03-0.18-0.14-0.32-0.25-0.47c-0.18-0.24-0.31-0.56-0.34-0.86c-0.07-0.7-0.42-1.26-0.78-1.83
	c-0.07-0.11-0.18-0.18-0.33-0.2c-0.87-0.11-1.75-0.23-2.62-0.35c-0.09-0.01-0.29,0.05-0.23-0.12c0.06-0.15-0.08-0.44,0.24-0.46
	c0.3-0.02,0.59-0.05,0.89-0.07c0.15-0.01,0.31,0.01,0.46-0.01c0.23-0.02,0.51,0.01,0.63-0.21c0.13-0.23-0.11-0.42-0.2-0.62
	c-0.38-0.85-1.16-1.27-1.87-1.76c-0.2-0.14-0.23-0.28-0.16-0.47c0.04-0.12,0.54-0.32,0.66-0.28c0.66,0.24,1.31,0.52,2.03,0.56
	c0.36,0.02,0.5,0.32,0.64,0.6c0.2,0.39,0.37,0.8,0.58,1.18c0.33,0.6,1.05,0.78,1.79,0.71c0.5-0.05,1.01-0.11,1.51-0.13
	C38.37,30.42,38.72,30.53,39.14,30.74z"/>
<path class="st1" d="M45.37,52.01c0,0.84-0.01,1.68,0.01,2.52c0,0.22-0.05,0.29-0.27,0.27c-0.31-0.02-0.62-0.02-0.93,0
	c-0.25,0.02-0.29-0.07-0.28-0.3c0.02-0.57,0-1.15,0.01-1.73c0-0.19-0.05-0.25-0.24-0.24c-0.55,0.01-1.11,0.01-1.66,0
	c-0.18,0-0.22,0.06-0.22,0.23c0.01,0.6,0,1.19,0.01,1.79c0,0.18-0.04,0.25-0.24,0.24c-0.34-0.02-0.69-0.02-1.03,0
	c-0.18,0.01-0.22-0.06-0.22-0.23c0.01-1.73,0.01-3.45,0-5.18c0-0.17,0.03-0.26,0.23-0.25c0.34,0.02,0.69,0.01,1.03,0
	c0.18-0.01,0.22,0.06,0.22,0.23c-0.01,0.58,0.01,1.15-0.01,1.73c-0.01,0.22,0.07,0.29,0.28,0.28c0.53-0.01,1.06-0.01,1.59,0
	c0.22,0.01,0.25-0.08,0.25-0.27c-0.01-0.57,0-1.15-0.01-1.73c0-0.19,0.05-0.25,0.24-0.24c0.32,0.01,0.64,0.02,0.96,0
	c0.21-0.01,0.28,0.05,0.28,0.27C45.36,50.29,45.37,51.15,45.37,52.01z"/>
<path class="st1" d="M52.64,51.22c1.22-0.6,2.15-0.46,2.76,0.39c0.59,0.82,0.5,2.05-0.21,2.77c-0.69,0.69-1.64,0.73-2.53,0.09
	c0.04,0.29-0.1,0.36-0.36,0.33c-0.34-0.04-0.79,0.14-0.98-0.07c-0.17-0.19-0.05-0.63-0.05-0.96c0-1.61,0.01-3.23-0.01-4.84
	c0-0.24,0.04-0.34,0.3-0.31c0.35,0.04,0.8-0.14,1.02,0.07c0.2,0.2,0.05,0.65,0.05,0.99C52.64,50.2,52.64,50.7,52.64,51.22z
	 M53.49,52.02c-0.51-0.01-0.89,0.36-0.9,0.86c0,0.51,0.36,0.87,0.88,0.87c0.51,0,0.86-0.34,0.87-0.84
	C54.36,52.39,54,52.02,53.49,52.02z"/>
<path class="st1" d="M25.74,51.22c0-0.75,0.01-1.49-0.01-2.22c-0.01-0.28,0.04-0.41,0.35-0.37c0.26,0.03,0.53,0.01,0.8,0
	c0.16-0.01,0.23,0.03,0.23,0.21c-0.01,1.92-0.01,3.85,0,5.77c0,0.17-0.06,0.2-0.21,0.2c-0.29-0.01-0.58-0.02-0.86,0
	c-0.25,0.02-0.35-0.06-0.3-0.37c-0.42,0.41-0.88,0.55-1.4,0.48c-0.45-0.06-0.84-0.25-1.15-0.59c-0.67-0.74-0.74-1.96-0.14-2.75
	C23.68,50.75,24.53,50.63,25.74,51.22z M24.94,52.01c-0.49,0-0.86,0.35-0.87,0.84c-0.01,0.5,0.36,0.88,0.86,0.88
	c0.49,0,0.85-0.36,0.85-0.86C25.78,52.39,25.42,52.02,24.94,52.01z"/>
<path class="st1" d="M22.36,41.87c0.26-0.02,0.52,0.04,0.79,0.01c0.2-0.03,0.28-0.12,0.26-0.3c-0.04-0.36,0.08-0.67,0.21-0.99
	c0.1-0.25,0.07-0.47-0.14-0.66c-0.21-0.18-0.4-0.37-0.65-0.49c-0.34-0.16-0.48-0.56-0.82-0.74c-0.1-0.05,0.04-0.15,0.12-0.14
	c0.26,0.01,0.53,0.02,0.79,0.07c0.88,0.17,1.77,0.32,2.62,0.61c0.4,0.14,0.74,0.33,0.84,0.8c0.04,0.2,0.24,0.28,0.37,0.41
	c0.21,0.2,0.22,0.39,0.01,0.59c-0.08,0.08-0.15,0.16-0.23,0.24c-0.11,0.11-0.21,0.24-0.14,0.41c0.07,0.16,0.22,0.2,0.39,0.19
	c0.49-0.03,0.99-0.03,1.48-0.15c0.49-0.13,0.98-0.2,1.48-0.05c0.07,0.02,0.17,0.01,0.17,0.12c0,0.08-0.08,0.12-0.16,0.14
	c-0.01,0-0.02,0-0.03,0c-1,0.05-1.88,0.5-2.77,0.9c-0.76,0.35-1.53,0.37-2.32,0.21c-0.91-0.18-1.82-0.39-2.73-0.59
	c-0.12-0.03-0.22-0.09-0.28-0.21c-0.15-0.27-0.09-0.37,0.21-0.37c0.1,0,0.2,0,0.3,0C22.19,41.87,22.27,41.87,22.36,41.87z"/>
<path class="st1" d="M37.58,43.68c-0.5,0.17-0.96,0-1.42-0.07c-0.47-0.08-0.92-0.16-1.42-0.07c-0.76,0.13-1.54,0.01-2.31-0.05
	c-0.15-0.01-0.31-0.03-0.46-0.04c-0.19-0.01-0.27-0.14-0.28-0.31c-0.01-0.21,0.17-0.12,0.27-0.14c0.43-0.06,0.85-0.11,1.27-0.2
	c0.13-0.03,0.19-0.09,0.22-0.21c0.15-0.62,0.18-1.24,0.08-1.87c-0.09-0.55-0.29-1.08-0.47-1.61c-0.11-0.32-0.2-0.66,0.07-0.97
	c0.06-0.07,0.04-0.17,0.03-0.26c-0.01-0.05-0.02-0.15-0.01-0.16c0.35-0.1,0.18-0.35,0.16-0.56c0-0.06-0.02-0.12,0.05-0.14
	c0.08-0.03,0.14,0.03,0.16,0.08c0.27,0.74,0.9,1.25,1.23,1.94c0.22,0.47,0.25,1,0.32,1.51c0.03,0.23,0.06,0.46,0.11,0.68
	c0.13,0.51,0.38,0.73,0.91,0.74c0.81,0.02,1.61-0.07,2.37-0.35c0.29-0.11,0.57,0,0.85,0.03c0.06,0,0.1,0.05,0.09,0.11
	c-0.01,0.08-0.08,0.11-0.14,0.12c-0.35,0.04-0.67,0.21-1.01,0.29c-0.58,0.13-1.01,0.53-1.5,0.81c-0.16,0.09-0.02,0.18,0.08,0.24
	C37.07,43.39,37.33,43.54,37.58,43.68z"/>
<path class="st0" d="M6.81,51.04c-0.82-0.81-1.89-0.64-2.36-0.15c-0.53,0.55-0.58,1.54-0.08,2.12c0.55,0.64,1.48,0.63,2.44-0.05
	c0,0.54,0,1.06,0,1.57c0,0.1-0.04,0.16-0.14,0.19c-1.22,0.41-2.34,0.24-3.3-0.64c-0.89-0.83-1.1-1.87-0.74-3
	c0.37-1.17,1.23-1.83,2.42-2.03c0.5-0.09,1.01-0.02,1.5,0.15c0.17,0.06,0.27,0.14,0.26,0.35C6.8,50.03,6.81,50.51,6.81,51.04z"/>
<path class="st1" d="M25.83,32.49c-0.24-0.02-0.26-0.21-0.28-0.36c-0.13-0.85-0.46-1.62-0.82-2.4c-0.06-0.13-0.12-0.19-0.26-0.21
	c-0.53-0.1-1.07-0.13-1.6-0.18c-0.06-0.01-0.14,0.04-0.18-0.03c-0.05-0.08,0.03-0.14,0.07-0.2c0.15-0.23,0.36-0.34,0.63-0.37
	c0.12-0.01,0.24-0.03,0.36-0.05c0.34-0.07,0.38-0.14,0.19-0.42c-0.28-0.42-0.32-0.85-0.19-1.35c0.18-0.7-0.11-1.33-0.48-1.89
	c-0.17-0.26-0.11-0.53-0.19-0.79c-0.01-0.05,0.02-0.1,0.07-0.1c0.03,0,0.08,0.03,0.1,0.06c0.58,0.59,1.18,1.15,1.84,1.66
	c0.11,0.09,0.17,0.19,0.18,0.33c0,0.15,0.03,0.31,0.04,0.46c0.02,1.09,0.43,1.27,1.36,1.52c0.64,0.17,1.31,0.14,1.97-0.01
	c0.28-0.06,0.52,0.03,0.74,0.18c0.04,0.03,0.11,0.05,0.1,0.11c-0.01,0.08-0.09,0.09-0.15,0.1c-0.66,0.04-1.3,0.25-1.95,0.35
	c-0.35,0.05-0.65,0.2-0.92,0.41c-0.28,0.22-0.19,0.57-0.26,0.86c-0.13,0.58-0.22,1.16-0.31,1.75C25.84,32.11,25.84,32.3,25.83,32.49
	z"/>
<path class="st1" d="M20.58,54.46c-0.93,0.66-1.88,0.6-2.54-0.11c-0.74-0.81-0.76-2.06-0.05-2.91c0.61-0.72,1.61-0.82,2.54-0.22
	c-0.01-0.28,0.17-0.29,0.38-0.27c0.34,0.03,0.79-0.14,0.98,0.07c0.17,0.18,0.05,0.63,0.05,0.96c0,0.84-0.01,1.68,0.01,2.52
	c0.01,0.28-0.09,0.33-0.33,0.31c-0.23-0.02-0.46-0.01-0.7,0C20.7,54.81,20.45,54.86,20.58,54.46z M20.6,52.88
	c0-0.49-0.37-0.86-0.85-0.86c-0.5,0-0.88,0.39-0.87,0.89c0.02,0.5,0.38,0.84,0.87,0.84C20.25,53.74,20.61,53.37,20.6,52.88z"/>
<path class="st1" d="M10.46,51.23c-0.01-0.19,0.03-0.29,0.24-0.28c0.32,0.02,0.64,0.01,0.96,0c0.14,0,0.19,0.04,0.19,0.18
	c-0.01,1.16-0.01,2.32,0,3.48c0,0.17-0.07,0.2-0.21,0.19c-0.29-0.01-0.58-0.02-0.86,0c-0.25,0.02-0.35-0.06-0.3-0.37
	c-0.41,0.4-0.86,0.55-1.36,0.49c-0.5-0.06-0.92-0.28-1.25-0.67c-0.66-0.79-0.66-1.99,0.02-2.8C8.49,50.73,9.47,50.64,10.46,51.23z
	 M10.51,52.89c0.01-0.49-0.35-0.87-0.83-0.88C9.18,52,8.79,52.38,8.8,52.88c0,0.49,0.36,0.86,0.85,0.86
	C10.15,53.74,10.51,53.39,10.51,52.89z"/>
<path class="st1" d="M33.11,54.44c-0.76,0.66-1.75,0.64-2.43,0.01c-0.79-0.73-0.91-2.01-0.27-2.87c0.64-0.85,1.61-0.99,2.67-0.36
	c0-0.19,0.06-0.29,0.28-0.28c0.31,0.03,0.62,0.01,0.93,0c0.15,0,0.19,0.04,0.19,0.19c-0.01,1.16-0.01,2.32,0,3.48
	c0,0.14-0.03,0.19-0.18,0.19c-0.29-0.01-0.58-0.02-0.86,0C33.2,54.82,33.04,54.78,33.11,54.44z M33.15,52.88
	c0-0.49-0.36-0.86-0.84-0.87c-0.5,0-0.89,0.38-0.88,0.88c0.01,0.49,0.37,0.85,0.87,0.85C32.79,53.74,33.15,53.38,33.15,52.88z"/>
<path class="st1" d="M14.23,51.35c0.4-0.47,0.89-0.57,1.43-0.53c0.72,0.06,1.19,0.57,1.21,1.37c0.02,0.81,0,1.61,0.01,2.42
	c0,0.17-0.05,0.2-0.21,0.2c-0.37-0.01-0.85,0.12-1.1-0.06c-0.23-0.17-0.05-0.68-0.07-1.04c-0.01-0.38,0-0.75-0.01-1.13
	c-0.02-0.46-0.2-0.64-0.58-0.65c-0.42-0.01-0.68,0.22-0.7,0.66c-0.02,0.63-0.03,1.26-0.02,1.89c0.01,0.26-0.05,0.35-0.32,0.33
	c-0.27-0.03-0.55-0.02-0.83,0c-0.17,0.01-0.23-0.03-0.23-0.22c0.01-1.14,0.01-2.28,0-3.41c0-0.17,0.03-0.24,0.22-0.23
	c0.24,0.02,0.49,0.01,0.73,0C14.05,50.94,14.31,50.92,14.23,51.35z"/>
<path class="st1" d="M36.76,51.44c0.45-0.59,0.98-0.68,1.55-0.61c0.69,0.09,1.11,0.57,1.13,1.33c0.03,0.82,0.01,1.64,0.01,2.45
	c0,0.14-0.04,0.19-0.18,0.19c-0.32-0.01-0.64-0.02-0.96,0c-0.2,0.01-0.23-0.08-0.23-0.25c0-0.67,0.01-1.35-0.01-2.02
	c-0.02-0.47-0.25-0.65-0.71-0.6c-0.33,0.04-0.54,0.25-0.56,0.63c-0.02,0.64-0.03,1.28-0.02,1.92c0,0.23-0.04,0.34-0.3,0.32
	c-0.27-0.03-0.55-0.02-0.83,0c-0.22,0.02-0.25-0.07-0.25-0.26c0.01-1.12,0.01-2.23,0-3.35c0-0.21,0.06-0.27,0.26-0.25
	c0.23,0.02,0.47,0.02,0.7,0C36.63,50.93,36.86,50.95,36.76,51.44z"/>
<path class="st1" d="M50.41,52.35c0,0.32,0,0.64,0,0.96c0,0.84-0.4,1.36-1.21,1.55c-0.56,0.13-1.12,0.13-1.67,0
	c-0.76-0.17-1.16-0.65-1.2-1.49c-0.03-0.74,0-1.48-0.01-2.22c0-0.17,0.07-0.2,0.22-0.2c0.37,0.01,0.85-0.12,1.09,0.06
	c0.22,0.17,0.05,0.68,0.06,1.04c0.01,0.35-0.01,0.71,0.01,1.06c0.01,0.5,0.23,0.73,0.66,0.73c0.44,0.01,0.66-0.2,0.67-0.7
	c0.02-0.63,0.03-1.26,0.01-1.89c-0.01-0.26,0.08-0.32,0.32-0.3c0.29,0.02,0.57,0.01,0.86,0c0.16-0.01,0.21,0.05,0.2,0.21
	C50.4,51.55,50.41,51.95,50.41,52.35z"/>
<path class="st1" d="M17.34,45.33c-0.59-0.08-1.19-0.16-1.79-0.25c-0.09-0.01-0.28-0.01-0.25-0.14c0.03-0.14,0.03-0.34,0.25-0.38
	c0.21-0.04,0.4-0.12,0.61-0.15c0.28-0.04,0.25-0.21,0.13-0.34c-0.2-0.24-0.23-0.5-0.19-0.78c0.08-0.59-0.28-0.9-0.71-1.15
	c-0.18-0.11-0.36-0.2-0.5-0.36c-0.05-0.06-0.16-0.12-0.08-0.22c0.06-0.08,0.14-0.08,0.24-0.05c0.45,0.14,0.9,0.32,1.36,0.4
	c0.73,0.14,1.1,0.56,1.22,1.27c0.03,0.15,0.11,0.29,0.17,0.43c0.21,0.46,0.54,0.55,1.24,0.43c0.54-0.09,1.07-0.26,1.63-0.2
	c0.08,0.01,0.15,0.03,0.22,0.05c0.06,0.02,0.14,0.03,0.14,0.12c0.01,0.12-0.1,0.09-0.17,0.11c-0.32,0.07-0.64,0.15-0.97,0.2
	c-0.34,0.05-0.61,0.2-0.84,0.43c-0.15,0.15-0.24,0.36-0.03,0.52c0.51,0.4,0.58,0.92,0.5,1.51c-0.04,0.32-0.05,0.64-0.09,0.95
	c-0.01,0.08,0,0.22-0.14,0.23c-0.12,0-0.11-0.12-0.15-0.19c-0.43-0.7-0.68-1.5-1.2-2.16C17.79,45.39,17.64,45.24,17.34,45.33z"/>
<path class="st1" d="M21.5,27.02c-0.41,0.15-0.77,0.11-1.12,0.14c-0.24,0.02-0.48,0.06-0.72,0.11c-0.28,0.05-0.41,0.26-0.46,0.53
	c-0.14,0.72-0.58,1.3-0.99,1.88c-0.12,0.17-0.34,0.14-0.43-0.05c-0.12-0.26-0.19-0.09-0.27,0c-0.17,0.2-0.33,0.41-0.49,0.62
	c-0.1,0.13-0.18,0.15-0.24-0.03c-0.14-0.4-0.11-0.77,0.04-1.17c0.15-0.37,0.22-0.78,0.32-1.17c0.04-0.17-0.02-0.25-0.2-0.31
	c-0.64-0.2-1.27-0.42-1.91-0.63c-0.09-0.03-0.23-0.01-0.21-0.16c0.01-0.12,0.14-0.13,0.23-0.15c0.16-0.03,0.33-0.04,0.49-0.06
	c1.38-0.12,2.77-0.26,4.12,0.24c0.23,0.09,0.49,0,0.72-0.04C20.78,26.69,21.1,26.81,21.5,27.02z"/>
<path class="st1" d="M9.86,47.24c-0.72-0.07-1.36-0.39-2.05-0.56c-0.03-0.01-0.06-0.03-0.09-0.04c-0.12-0.03-0.33,0-0.29-0.18
	c0.03-0.18,0.23-0.27,0.41-0.24c0.23,0.04,0.46,0.01,0.69,0.04c0.18,0.02,0.26-0.05,0.19-0.22c-0.07-0.18-0.07-0.33,0.04-0.5
	c0.1-0.15,0.06-0.29-0.06-0.42c-0.2-0.22-0.4-0.44-0.59-0.67c-0.05-0.06-0.16-0.12-0.07-0.22c0.06-0.06,0.15-0.06,0.22-0.02
	c0.87,0.4,1.79,0.69,2.47,1.42c0.11,0.12,0.19,0.21,0.12,0.37c-0.09,0.21,0.01,0.2,0.19,0.2c0.48-0.02,0.96-0.16,1.45-0.03
	c0.04,0.01,0.1-0.01,0.13,0.01c0.09,0.05,0.27,0.03,0.26,0.16c-0.01,0.14-0.18,0.08-0.28,0.1c-0.62,0.1-1.23,0.17-1.76,0.59
	C10.55,47.23,10.2,47.28,9.86,47.24z"/>
<path class="st1" d="M27.97,52.84c0-0.55,0.01-1.11,0-1.66c0-0.18,0.04-0.25,0.23-0.24c0.36,0.02,0.84-0.12,1.06,0.06
	c0.24,0.19,0.07,0.68,0.07,1.04c0.01,0.82-0.01,1.64,0.01,2.45c0.01,0.26-0.07,0.32-0.32,0.31c-0.34-0.02-0.8,0.12-0.99-0.06
	c-0.22-0.2-0.05-0.66-0.07-1.01C27.96,53.44,27.97,53.14,27.97,52.84z"/>
<path class="st0" d="M59.45,60.28c-0.27,0.08-0.32-0.13-0.39-0.25c-0.17-0.27-0.29-0.33-0.57-0.1c-0.34,0.28-0.72,0.52-1.21,0.4
	c-0.66-0.16-0.92-0.87-0.55-1.44c0.14-0.22,0.33-0.4,0.55-0.52c0.29-0.16,0.35-0.3,0.13-0.59c-0.28-0.38-0.17-0.81,0.19-1.02
	c0.28-0.16,0.61-0.11,0.81,0.11c0.21,0.23,0.23,0.6,0.04,0.86c-0.06,0.08-0.13,0.17-0.21,0.21c-0.37,0.2-0.27,0.4-0.05,0.65
	c0.17,0.19,0.31,0.4,0.45,0.61c0.12,0.19,0.22,0.2,0.37,0.02c0.08-0.1,0.17-0.36,0.33-0.23c0.12,0.1-0.11,0.24-0.2,0.33
	c-0.17,0.18-0.19,0.32-0.01,0.5C59.24,59.96,59.33,60.12,59.45,60.28z M56.78,59.44c0.01,0.5,0.44,0.83,0.93,0.69
	c0.33-0.09,0.58-0.3,0.85-0.5c0.12-0.09,0.07-0.16,0-0.24c-0.17-0.22-0.33-0.44-0.49-0.66c-0.32-0.43-0.32-0.43-0.75-0.11
	C57.03,58.82,56.77,59.04,56.78,59.44z M58.37,57.34c0.01-0.25-0.19-0.46-0.42-0.46c-0.23-0.01-0.49,0.25-0.47,0.5
	c0.02,0.25,0.12,0.49,0.35,0.6C57.96,58.04,58.36,57.55,58.37,57.34z"/>
<path class="st1" d="M14.17,58.39c0.11-0.08-0.03-0.27,0.15-0.26c0.19,0.01,0.1,0.17,0.1,0.25c0.01,0.7,0.02,1.39,0,2.09
	c-0.02,0.88-0.84,1.37-1.64,0.99c-0.26-0.12-0.42-0.31-0.5-0.58c-0.02-0.07-0.11-0.18,0.01-0.23c0.12-0.05,0.16,0.05,0.2,0.15
	c0.19,0.49,0.66,0.69,1.15,0.51c0.28-0.1,0.43-0.3,0.5-0.57c0.06-0.22,0.1-0.45,0.05-0.73c-0.35,0.25-0.71,0.46-1.16,0.31
	c-0.24-0.08-0.43-0.23-0.56-0.43c-0.31-0.47-0.23-1.18,0.16-1.55C13.06,57.95,13.58,57.96,14.17,58.39z M13.36,60.18
	c0.47,0,0.87-0.45,0.86-0.99c0-0.49-0.4-0.92-0.85-0.93c-0.45-0.01-0.87,0.45-0.87,0.95C12.51,59.72,12.91,60.17,13.36,60.18z"/>
<path class="st1" d="M31.81,57.36c-0.99-0.68-1.76-0.64-2.39,0.12c-0.55,0.66-0.5,1.59,0.11,2.19c0.65,0.64,1.5,0.64,2.27-0.01
	c0.08,0.17,0.04,0.28-0.11,0.39c-0.75,0.52-1.78,0.4-2.4-0.31c-0.63-0.71-0.63-1.76-0.02-2.45c0.63-0.71,1.63-0.84,2.4-0.32
	C31.81,57.08,31.86,57.19,31.81,57.36z"/>
<path class="st1" d="M62.1,60.38c-0.29-0.01-0.62-0.17-0.82-0.53c-0.05-0.08-0.22-0.19-0.03-0.29c0.17-0.09,0.16,0.1,0.21,0.17
	c0.39,0.6,1.18,0.59,1.52-0.02c0.2-0.36,0.13-0.7-0.22-0.91c-0.28-0.17-0.58-0.32-0.87-0.48c-0.42-0.23-0.57-0.48-0.52-0.86
	c0.05-0.39,0.27-0.64,0.64-0.76c0.34-0.11,0.8,0.04,1.02,0.31c0.05,0.06,0.14,0.13,0.05,0.22c-0.11,0.11-0.14-0.02-0.2-0.07
	c-0.37-0.35-0.84-0.38-1.11-0.06c-0.26,0.31-0.22,0.73,0.12,0.95c0.26,0.17,0.54,0.3,0.81,0.44c0.55,0.29,0.71,0.58,0.59,1.07
	C63.18,60.03,62.72,60.38,62.1,60.38z"/>
<path class="st1" d="M28.66,50.22c-0.44,0-0.77-0.35-0.76-0.78c0.01-0.42,0.34-0.75,0.77-0.74c0.42,0,0.75,0.33,0.76,0.75
	C29.44,49.89,29.1,50.22,28.66,50.22z"/>
<path class="st1" d="M8.94,58.4c0.05-0.06,0.09-0.11,0.14-0.16c0.22-0.19,0.46-0.23,0.74-0.16c0.28,0.07,0.4,0.29,0.41,0.54
	c0.03,0.52,0.02,1.04,0.02,1.56c0,0.07-0.01,0.13-0.11,0.13c-0.12,0-0.1-0.09-0.1-0.17c0-0.38,0-0.75,0-1.13
	c0-0.11-0.01-0.22-0.02-0.33c-0.03-0.26-0.15-0.44-0.44-0.43c-0.28,0-0.46,0.15-0.52,0.42C9.02,58.82,9,58.98,9,59.13
	c-0.01,0.32,0,0.64,0,0.96c0,0.08,0.06,0.22-0.11,0.22c-0.14-0.01-0.09-0.13-0.09-0.2c-0.01-0.38,0-0.75,0-1.13
	c0-0.48-0.14-0.71-0.45-0.72c-0.31-0.01-0.52,0.25-0.54,0.7c-0.01,0.39,0,0.77-0.01,1.16c0,0.08,0.05,0.2-0.1,0.19
	c-0.14,0-0.1-0.12-0.1-0.2c0-0.61,0-1.21,0-1.82c0-0.09,0.06-0.24,0.12-0.16c0.2,0.28,0.3-0.01,0.43-0.05
	C8.48,57.99,8.72,58.13,8.94,58.4z"/>
<path class="st1" d="M6.6,59.44c0,0.19,0.01,0.38,0,0.56c-0.01,0.1,0.09,0.28-0.09,0.29c-0.2,0.01-0.11-0.18-0.11-0.28
	c-0.01-0.4,0.01-0.8-0.01-1.19c-0.01-0.39-0.16-0.57-0.45-0.57c-0.29,0-0.47,0.15-0.53,0.44c-0.1,0.45-0.02,0.9-0.05,1.35
	c-0.01,0.09,0.08,0.26-0.1,0.25c-0.18,0-0.1-0.17-0.1-0.26c-0.01-0.4,0-0.8-0.01-1.19c-0.01-0.28-0.07-0.54-0.4-0.59
	c-0.27-0.05-0.49,0.13-0.56,0.49c-0.08,0.44-0.02,0.88-0.04,1.32c0,0.08,0.07,0.22-0.09,0.23c-0.17,0.01-0.11-0.14-0.11-0.22
	c0-0.6,0-1.19,0-1.79c0-0.06-0.04-0.14,0.05-0.17c0.08-0.02,0.14-0.02,0.16,0.1c0.03,0.14,0.09,0.01,0.12-0.01
	c0.36-0.24,0.59-0.23,0.91,0.07c0.1,0.1,0.13,0.08,0.22-0.01c0.23-0.25,0.51-0.28,0.82-0.17c0.31,0.12,0.36,0.39,0.38,0.67
	C6.61,59,6.6,59.22,6.6,59.44z"/>
<path class="st1" d="M46.29,58.45c0-0.11,0-0.17,0-0.24c0-0.08,0.05-0.08,0.11-0.09c0.07,0,0.1,0.04,0.1,0.1c0,0.66,0,1.32,0,1.99
	c0,0.06-0.03,0.1-0.1,0.1c-0.06,0-0.11-0.01-0.11-0.09c0-0.07,0-0.13,0-0.24c-0.26,0.24-0.52,0.41-0.85,0.4
	c-0.33-0.01-0.6-0.12-0.81-0.38c-0.38-0.46-0.35-1.25,0.05-1.64C45.12,57.93,45.69,57.95,46.29,58.45z M46.29,59.18
	c0-0.53-0.4-0.94-0.88-0.92c-0.46,0.02-0.82,0.44-0.81,0.96c0.01,0.55,0.37,0.97,0.84,0.96C45.93,60.17,46.3,59.74,46.29,59.18z"/>
<path class="st1" d="M74.07,59.25c-0.23,0-0.46,0.01-0.69,0c-0.22-0.01-0.29,0.04-0.22,0.27c0.1,0.34,0.31,0.56,0.65,0.64
	c0.32,0.08,0.61-0.03,0.84-0.28c0.06-0.07,0.1-0.26,0.24-0.14c0.14,0.12-0.02,0.21-0.08,0.29c-0.28,0.34-0.83,0.45-1.24,0.26
	c-0.43-0.19-0.69-0.68-0.64-1.2c0.06-0.59,0.47-1.02,1.01-1.04c0.56-0.02,0.98,0.34,1.1,0.93c0.04,0.19,0.01,0.29-0.22,0.27
	C74.56,59.23,74.31,59.25,74.07,59.25z M73.96,59.05c0.2,0,0.4-0.01,0.6,0c0.25,0.02,0.25-0.1,0.16-0.28
	c-0.14-0.31-0.39-0.5-0.72-0.51c-0.33-0.01-0.59,0.16-0.76,0.44c-0.16,0.27-0.11,0.34,0.19,0.34
	C73.61,59.05,73.79,59.05,73.96,59.05z"/>
<path class="st1" d="M64.77,59.25c-0.22,0-0.44,0.02-0.66,0c-0.27-0.03-0.32,0.06-0.24,0.31c0.21,0.66,0.99,0.83,1.48,0.32
	c0.06-0.07,0.1-0.26,0.24-0.14c0.14,0.12-0.02,0.21-0.09,0.29c-0.32,0.37-0.89,0.46-1.33,0.21c-0.46-0.26-0.66-0.81-0.5-1.38
	c0.15-0.55,0.59-0.86,1.13-0.81c0.49,0.05,0.89,0.47,0.94,1c0.01,0.14-0.01,0.2-0.17,0.2C65.3,59.24,65.04,59.25,64.77,59.25z
	 M64.67,59.05c0.2,0,0.4-0.01,0.59,0c0.23,0.02,0.27-0.06,0.18-0.26c-0.15-0.32-0.39-0.52-0.73-0.53c-0.34-0.01-0.6,0.17-0.77,0.47
	c-0.12,0.23-0.09,0.34,0.2,0.31C64.31,59.03,64.49,59.05,64.67,59.05z"/>
<path class="st1" d="M18.45,58.41c0.06-0.05,0.02-0.12,0.03-0.18c0.01-0.06,0.01-0.11,0.09-0.11c0.08,0,0.12,0.03,0.12,0.11
	c0,0.65,0,1.3,0,1.95c0,0.08-0.02,0.12-0.11,0.12c-0.1,0-0.1-0.06-0.1-0.13c0-0.05,0-0.11-0.01-0.21c-0.28,0.3-0.6,0.45-0.99,0.4
	c-0.26-0.03-0.48-0.15-0.65-0.35c-0.38-0.46-0.37-1.23,0.02-1.64C17.27,57.94,17.85,57.95,18.45,58.41z M18.48,59.19
	c0-0.53-0.38-0.95-0.87-0.94c-0.46,0.01-0.83,0.43-0.82,0.95c0,0.55,0.36,0.97,0.83,0.97C18.1,60.18,18.48,59.75,18.48,59.19z"/>
<path class="st1" d="M51.95,59.22c0,0.66-0.5,1.16-1.14,1.16c-0.62-0.01-1.12-0.52-1.12-1.15c-0.01-0.65,0.51-1.18,1.14-1.17
	C51.46,58.06,51.95,58.56,51.95,59.22z M50.79,58.26c-0.5,0.01-0.88,0.44-0.88,0.97c0.01,0.53,0.42,0.96,0.9,0.95
	c0.49-0.01,0.92-0.46,0.92-0.96C51.73,58.7,51.28,58.24,50.79,58.26z"/>
<path class="st1" d="M24.13,59.22c0,0.66-0.49,1.16-1.14,1.16c-0.62,0-1.12-0.52-1.13-1.15c0-0.65,0.51-1.18,1.13-1.18
	C23.65,58.06,24.13,58.56,24.13,59.22z M22.1,59.22c0,0.53,0.4,0.96,0.89,0.96c0.48,0,0.92-0.45,0.93-0.94
	c0-0.52-0.43-0.97-0.93-0.98C22.5,58.25,22.11,58.68,22.1,59.22z"/>
<path class="st1" d="M34.68,59.24c-0.01,0.66-0.51,1.15-1.16,1.14c-0.61-0.01-1.11-0.54-1.1-1.17c0-0.64,0.53-1.17,1.16-1.15
	C34.22,58.07,34.7,58.58,34.68,59.24z M32.66,59.22c0,0.53,0.4,0.97,0.89,0.96c0.49-0.01,0.92-0.45,0.93-0.94
	c0.01-0.51-0.43-0.97-0.93-0.98C33.05,58.25,32.66,58.68,32.66,59.22z"/>
<path class="st1" d="M38.39,60.38c-0.23-0.01-0.47-0.15-0.6-0.44c-0.02-0.05-0.1-0.11,0-0.16c0.08-0.04,0.14-0.05,0.19,0.04
	c0.04,0.08,0.09,0.15,0.15,0.21c0.14,0.15,0.32,0.19,0.52,0.11c0.21-0.08,0.31-0.25,0.32-0.46c0.01-0.2-0.12-0.32-0.3-0.4
	c-0.16-0.07-0.32-0.14-0.48-0.22c-0.24-0.12-0.32-0.33-0.27-0.58c0.05-0.24,0.22-0.38,0.45-0.43c0.25-0.05,0.45,0.05,0.62,0.24
	c0.04,0.04,0.07,0.1,0,0.14c-0.04,0.02-0.09,0.06-0.15,0.01c-0.05-0.04-0.1-0.09-0.15-0.13c-0.21-0.13-0.38-0.07-0.51,0.12
	c-0.14,0.21-0.04,0.36,0.14,0.46c0.13,0.08,0.28,0.12,0.42,0.18c0.34,0.16,0.5,0.44,0.42,0.76C39.1,60.17,38.81,60.38,38.39,60.38z"
	/>
<path class="st1" d="M72.5,58.55c-0.58-0.39-1.03-0.39-1.38,0c-0.33,0.37-0.33,0.96,0,1.33c0.36,0.4,0.79,0.39,1.42-0.03
	c0.08,0.16,0,0.26-0.13,0.34c-0.46,0.3-1.1,0.23-1.45-0.16c-0.39-0.44-0.41-1.11-0.04-1.58c0.32-0.41,0.97-0.52,1.44-0.25
	C72.51,58.28,72.55,58.39,72.5,58.55z"/>
<path class="st1" d="M76.04,60.38c-0.25-0.01-0.49-0.16-0.62-0.46c-0.03-0.06-0.08-0.11,0.03-0.15c0.07-0.02,0.13-0.04,0.16,0.04
	c0.04,0.11,0.11,0.19,0.2,0.26c0.15,0.12,0.31,0.15,0.49,0.07c0.19-0.08,0.29-0.24,0.31-0.44c0.01-0.2-0.11-0.33-0.28-0.4
	c-0.16-0.07-0.32-0.14-0.48-0.22c-0.24-0.12-0.33-0.32-0.28-0.58c0.04-0.24,0.21-0.39,0.44-0.44c0.25-0.06,0.45,0.05,0.63,0.22
	c0.04,0.04,0.07,0.1,0.02,0.14c-0.04,0.04-0.11,0.08-0.17,0.02c-0.04-0.04-0.08-0.08-0.12-0.11c-0.22-0.14-0.4-0.09-0.54,0.12
	c-0.13,0.21-0.02,0.36,0.16,0.46c0.13,0.07,0.28,0.12,0.42,0.18c0.33,0.15,0.48,0.42,0.41,0.74C76.74,60.16,76.47,60.38,76.04,60.38
	z"/>
<path class="st1" d="M52.96,58.36c0.07-0.06,0.12-0.12,0.18-0.16c0.46-0.34,1.06-0.1,1.11,0.47c0.04,0.49,0.02,0.99,0.02,1.49
	c0,0.08,0,0.16-0.12,0.15c-0.12-0.01-0.09-0.1-0.09-0.17c0-0.41,0-0.82,0-1.23c0-0.41-0.13-0.61-0.41-0.65
	c-0.34-0.05-0.57,0.14-0.67,0.54c-0.1,0.43-0.02,0.86-0.05,1.29c-0.01,0.08,0.07,0.23-0.1,0.23c-0.17,0-0.1-0.14-0.1-0.23
	c-0.01-0.57-0.01-1.15,0-1.72c0-0.08-0.06-0.21,0.09-0.23C53,58.1,52.89,58.29,52.96,58.36z"/>
<path class="st1" d="M35.72,58.36c0.16-0.22,0.38-0.32,0.65-0.31c0.37,0.02,0.6,0.24,0.62,0.64c0.02,0.48,0.01,0.97,0.01,1.46
	c0,0.07,0.02,0.16-0.1,0.16c-0.12,0-0.1-0.09-0.1-0.16c0-0.42,0-0.84,0-1.26c0-0.39-0.15-0.6-0.43-0.63
	c-0.33-0.04-0.55,0.13-0.64,0.52c-0.11,0.42-0.02,0.86-0.05,1.28c-0.01,0.09,0.08,0.25-0.11,0.25c-0.16-0.01-0.09-0.15-0.09-0.23
	c-0.01-0.56-0.01-1.13,0-1.69c0-0.09-0.09-0.24,0.1-0.26C35.75,58.11,35.62,58.3,35.72,58.36z"/>
<path class="st1" d="M25.14,58.36c0.08-0.07,0.14-0.13,0.21-0.18c0.46-0.31,1.04-0.07,1.08,0.48c0.04,0.49,0.02,0.99,0.02,1.49
	c0,0.08,0.01,0.16-0.11,0.16c-0.12-0.01-0.1-0.1-0.1-0.17c0-0.42,0-0.84,0-1.26c0-0.39-0.15-0.6-0.45-0.62
	c-0.32-0.03-0.53,0.14-0.63,0.5c-0.11,0.44-0.03,0.88-0.06,1.32c-0.01,0.08,0.07,0.23-0.1,0.23c-0.17,0-0.1-0.14-0.1-0.23
	c-0.01-0.57-0.01-1.15,0-1.72c0-0.08-0.07-0.21,0.09-0.23C25.18,58.1,25.08,58.28,25.14,58.36z"/>
<path class="st1" d="M41.38,59.02c0,0.22,0.01,0.44,0,0.66c-0.02,0.42-0.3,0.68-0.73,0.69c-0.43,0.01-0.78-0.26-0.8-0.67
	c-0.02-0.47-0.01-0.95,0-1.42c0-0.07-0.03-0.16,0.09-0.17c0.15-0.01,0.11,0.11,0.11,0.18c0.02,0.48-0.04,0.97,0.05,1.45
	c0.05,0.29,0.23,0.41,0.5,0.42c0.28,0.01,0.47-0.1,0.53-0.39c0.09-0.4,0.02-0.81,0.04-1.22c0-0.09,0-0.18,0-0.26
	c0-0.08-0.03-0.19,0.12-0.18c0.12,0.01,0.09,0.1,0.09,0.17C41.39,58.54,41.39,58.78,41.38,59.02
	C41.39,59.02,41.39,59.02,41.38,59.02z"/>
<path class="st1" d="M67.41,58.15c0.23-0.11,0.26,0.07,0.31,0.19c0.22,0.48,0.43,0.96,0.65,1.48c0.21-0.26,0.27-0.55,0.4-0.8
	c0.13-0.25,0.23-0.52,0.34-0.79c0.04-0.1,0.11-0.15,0.2-0.11c0.11,0.05,0.01,0.13-0.01,0.18c-0.29,0.66-0.58,1.32-0.91,2.06
	C68.05,59.6,67.73,58.88,67.41,58.15z"/>
<path class="st1" d="M3.01,58.52c0,0.53,0,1.06,0,1.59c0,0.07,0.06,0.19-0.09,0.2c-0.16,0.01-0.14-0.1-0.14-0.2
	c0-1.06,0-2.12,0-3.18c0-0.09-0.03-0.21,0.14-0.2c0.15,0.01,0.1,0.12,0.1,0.2C3.02,57.45,3.01,57.99,3.01,58.52z"/>
<path class="st1" d="M42.37,58.36c0-0.58,0-1.17,0-1.75c0-0.07-0.06-0.2,0.09-0.2c0.17-0.01,0.12,0.13,0.12,0.21
	c0,1.16,0,2.32,0,3.47c0,0.08,0.06,0.23-0.1,0.22c-0.16,0-0.1-0.15-0.1-0.23C42.36,59.5,42.37,58.93,42.37,58.36z"/>
<path class="st1" d="M43.7,59.35c0,0.22,0.01,0.44,0,0.66c-0.01,0.1,0.09,0.28-0.09,0.29c-0.2,0.01-0.11-0.18-0.11-0.28
	c-0.01-0.45,0-0.9,0-1.36c0-0.06-0.02-0.14,0-0.16c0.24-0.21-0.56-0.12-0.11-0.39c0.23-0.14,0.06-0.4,0.1-0.6
	c0.02-0.08-0.02-0.19,0.13-0.18c0.12,0.01,0.08,0.11,0.09,0.18c0.01,0.1,0.01,0.2,0,0.3c-0.02,0.2,0,0.35,0.26,0.31
	c0.07-0.01,0.13,0.01,0.12,0.11c-0.01,0.09-0.08,0.1-0.14,0.09c-0.26-0.04-0.25,0.13-0.24,0.3C43.71,58.86,43.7,59.1,43.7,59.35z"/>
<path class="st1" d="M47.69,59.35c0,0.25,0,0.51,0,0.76c0,0.08,0.05,0.19-0.1,0.2c-0.15,0.01-0.11-0.11-0.11-0.19
	c0-0.51,0-1.02,0-1.52c0-0.12,0.06-0.27-0.17-0.28c-0.11,0-0.11-0.15-0.05-0.16c0.37-0.07,0.16-0.36,0.22-0.55
	c0.03-0.09-0.07-0.26,0.1-0.27c0.2-0.01,0.09,0.18,0.11,0.28c0.02,0.07,0.01,0.15,0,0.23c-0.02,0.18,0,0.31,0.24,0.27
	c0.08-0.01,0.16-0.01,0.15,0.11c-0.01,0.1-0.08,0.1-0.15,0.08c-0.23-0.04-0.25,0.08-0.24,0.27C47.7,58.84,47.69,59.09,47.69,59.35
	C47.69,59.35,47.69,59.35,47.69,59.35z"/>
<path class="st1" d="M19.66,59.32c0-0.24,0-0.48,0-0.73c0-0.12,0.05-0.27-0.17-0.28c-0.1,0-0.11-0.15-0.04-0.16
	c0.38-0.07,0.15-0.37,0.21-0.55c0.03-0.09-0.07-0.26,0.1-0.26c0.18,0,0.09,0.16,0.11,0.25c0.01,0.1,0.01,0.2,0,0.3
	c-0.01,0.16,0.02,0.26,0.21,0.23c0.07-0.01,0.17-0.03,0.18,0.09c0.01,0.12-0.08,0.12-0.16,0.11c-0.24-0.03-0.23,0.11-0.23,0.28
	c0.01,0.5,0,0.99,0,1.49c0,0.08,0.06,0.23-0.1,0.22c-0.16-0.01-0.1-0.15-0.1-0.23C19.66,59.82,19.66,59.57,19.66,59.32z"/>
<path class="st1" d="M66.33,59.2c0-0.31,0-0.62,0-0.93c0-0.11,0.09-0.21,0.14-0.14c0.15,0.24,0.23,0.01,0.33-0.03
	c0.08-0.03,0.17-0.06,0.26-0.05c0.08,0.01,0.17,0.02,0.16,0.12c-0.01,0.07-0.08,0.08-0.15,0.09c-0.38,0.05-0.51,0.19-0.52,0.61
	c-0.01,0.41,0,0.82-0.01,1.23c0,0.07,0.05,0.2-0.09,0.2c-0.17,0.01-0.11-0.13-0.11-0.21C66.32,59.79,66.33,59.5,66.33,59.2
	C66.33,59.2,66.33,59.2,66.33,59.2z"/>
<path class="st1" d="M15.35,59.21c0-0.31,0-0.62,0-0.93c0-0.06-0.03-0.14,0.07-0.16c0.06-0.01,0.13-0.02,0.14,0.08
	c0.02,0.16,0.08,0.03,0.11,0c0.12-0.11,0.25-0.17,0.42-0.15c0.07,0.01,0.15,0.04,0.15,0.1c0,0.07-0.07,0.09-0.14,0.11
	c-0.41,0.07-0.52,0.19-0.53,0.59c-0.01,0.41,0,0.82-0.01,1.23c0,0.08,0.07,0.23-0.11,0.22c-0.16-0.01-0.09-0.15-0.1-0.23
	C15.34,59.79,15.35,59.5,15.35,59.21C15.35,59.21,15.35,59.21,15.35,59.21z"/>
<path class="st1" d="M21.13,59.22c0,0.31,0,0.62,0,0.92c0,0.07,0.03,0.16-0.1,0.17c-0.12,0.01-0.11-0.08-0.11-0.16
	c0-0.63,0-1.25,0-1.88c0-0.08,0-0.16,0.12-0.15c0.12,0.01,0.09,0.1,0.09,0.17C21.14,58.6,21.13,58.91,21.13,59.22z"/>
<path class="st1" d="M48.88,59.24c0,0.31,0,0.62,0,0.92c0,0.06,0.01,0.14-0.09,0.15c-0.11,0.01-0.12-0.06-0.12-0.14
	c0-0.63,0-1.25,0-1.88c0-0.07-0.02-0.16,0.1-0.16c0.13,0,0.1,0.09,0.1,0.16C48.88,58.6,48.88,58.92,48.88,59.24z"/>
<path class="st1" d="M70.12,59.18c0,0.32,0,0.64,0,0.96c0,0.07,0.03,0.16-0.1,0.17c-0.12,0.01-0.11-0.08-0.11-0.16
	c0-0.63,0-1.25,0-1.88c0-0.08,0-0.16,0.12-0.15c0.13,0.01,0.09,0.1,0.09,0.17C70.12,58.59,70.12,58.89,70.12,59.18z"/>
<path class="st1" d="M11.23,59.19c0-0.3,0-0.59,0-0.89c0-0.09-0.02-0.19,0.12-0.18c0.13,0.01,0.08,0.11,0.08,0.17
	c0,0.62,0,1.23,0,1.85c0,0.07,0.02,0.16-0.1,0.16c-0.12,0-0.11-0.09-0.11-0.16C11.23,59.83,11.23,59.51,11.23,59.19z"/>
<path class="st2" d="M11.51,57.42c-0.02,0.1-0.08,0.18-0.2,0.17c-0.11-0.01-0.19-0.08-0.18-0.19c0.01-0.11,0.09-0.19,0.2-0.18
	C11.43,57.22,11.51,57.29,11.51,57.42z"/>
<path class="st2" d="M70.03,57.59c-0.15,0-0.22-0.08-0.23-0.18c-0.01-0.12,0.08-0.19,0.18-0.2c0.11-0.01,0.19,0.06,0.19,0.18
	C70.19,57.51,70.11,57.56,70.03,57.59z"/>
<path class="st2" d="M48.55,57.41c0.03-0.13,0.11-0.21,0.21-0.2c0.1,0.01,0.19,0.08,0.18,0.2c-0.01,0.11-0.08,0.18-0.2,0.18
	C48.62,57.58,48.59,57.48,48.55,57.41z"/>
<path class="st2" d="M21.01,57.21c0.1,0.02,0.19,0.07,0.19,0.19c0,0.11-0.06,0.19-0.18,0.19c-0.12,0-0.19-0.07-0.2-0.18
	C20.82,57.3,20.9,57.24,21.01,57.21z"/>
</svg>
